<svg width="128" height="128" viewBox="0 0 128 128" fill="none" xmlns="http://www.w3.org/2000/svg">
  <defs>
    <linearGradient id="bg" x1="16" y1="12" x2="112" y2="116" gradientUnits="userSpaceOnUse">
      <stop stop-color="#1E3A8A"/>
      <stop offset="0.52" stop-color="#0EA5E9"/>
      <stop offset="1" stop-color="#14B8A6"/>
    </linearGradient>
    <linearGradient id="bolt" x1="44" y1="30" x2="86" y2="95" gradientUnits="userSpaceOnUse">
      <stop stop-color="#F8FAFC"/>
      <stop offset="1" stop-color="#BFDBFE"/>
    </linearGradient>
  </defs>
  <rect x="8" y="8" width="112" height="112" rx="28" fill="url(#bg)"/>
  <circle cx="96" cy="32" r="9" fill="#FDE68A" opacity="0.95"/>
  <path d="M58 28C58 24.6863 60.6863 22 64 22C67.3137 22 70 24.6863 70 28V32H74C78.4183 32 82 35.5817 82 40V70C82 74.4183 78.4183 78 74 78H40C35.5817 78 32 74.4183 32 70V40C32 35.5817 35.5817 32 40 32H58V28Z" fill="#0B1120" fill-opacity="0.28"/>
  <path d="M66 34L46 64H60L54 94L82 54H66L74 34H66Z" fill="url(#bolt)"/>
</svg>
